<?xml version="1.0" encoding="UTF-8" standalone="no"?>
<!-- Created with Inkscape (http://www.inkscape.org/) -->

<svg
   xmlns:dc="http://purl.org/dc/elements/1.1/"
   xmlns:cc="http://creativecommons.org/ns#"
   xmlns:rdf="http://www.w3.org/1999/02/22-rdf-syntax-ns#"
   xmlns:svg="http://www.w3.org/2000/svg"
   xmlns="http://www.w3.org/2000/svg"
   xmlns:sodipodi="http://sodipodi.sourceforge.net/DTD/sodipodi-0.dtd"
   xmlns:inkscape="http://www.inkscape.org/namespaces/inkscape"
   width="744.09448819"
   height="1052.3622047"
   id="svg4858"
   version="1.1"
   inkscape:version="0.48.5 r10040"
   sodipodi:docname="compute.svg"
   inkscape:export-filename="/Users/mturner/workspace/wcwave/vwplatform/app/static/images/compute.png"
   inkscape:export-xdpi="55.721508"
   inkscape:export-ydpi="55.721508">
  <defs
     id="defs4860" />
  <sodipodi:namedview
     id="base"
     pagecolor="#ffffff"
     bordercolor="#666666"
     borderopacity="1.0"
     inkscape:pageopacity="0.0"
     inkscape:pageshadow="2"
     inkscape:zoom="0.92864551"
     inkscape:cx="372.04724"
     inkscape:cy="526.18109"
     inkscape:document-units="px"
     inkscape:current-layer="layer1"
     showgrid="false"
     inkscape:window-width="1178"
     inkscape:window-height="1892"
     inkscape:window-x="2656"
     inkscape:window-y="11"
     inkscape:window-maximized="0" />
  <metadata
     id="metadata4863">
    <rdf:RDF>
      <cc:Work
         rdf:about="">
        <dc:format>image/svg+xml</dc:format>
        <dc:type
           rdf:resource="http://purl.org/dc/dcmitype/StillImage" />
        <dc:title></dc:title>
      </cc:Work>
    </rdf:RDF>
  </metadata>
  <g
     inkscape:label="Layer 1"
     inkscape:groupmode="layer"
     id="layer1">
    <rect
       style="fill:none;stroke:#000000;stroke-width:6.25000000000000000;stroke-miterlimit:4;stroke-dasharray:none"
       id="rect4866"
       width="478.3869"
       height="275.25275"
       x="93.074081"
       y="130.05351"
       inkscape:export-filename="/Users/mturner/workspace/wcwave/vwplatform/app/static/images/path4870.png"
       inkscape:export-xdpi="38.965256"
       inkscape:export-ydpi="38.965256" />
    <path
       style="fill:none;stroke:#000000;stroke-width:6.25000000000000000;stroke-linecap:butt;stroke-linejoin:miter;stroke-miterlimit:4;stroke-opacity:1;stroke-dasharray:none"
       d="M 92.834547,402.82156 196.99935,515.40228 663.59138,516.20276 569.83891,405.00195"
       id="path4870"
       inkscape:connector-curvature="0"
       sodipodi:nodetypes="cccc"
       inkscape:export-xdpi="38.965256"
       inkscape:export-ydpi="38.965256" />
    <path
       style="fill:none;stroke:#000000;stroke-width:6.25000000000000000;stroke-linecap:butt;stroke-linejoin:miter;stroke-miterlimit:4;stroke-opacity:1;stroke-dasharray:none"
       d="m 92.384457,400.98834 0,22.32394 104.753873,121.60675 0,-28.78613"
       id="path4872"
       inkscape:connector-curvature="0"
       inkscape:export-filename="/Users/mturner/workspace/wcwave/vwplatform/app/static/images/path4870.png"
       inkscape:export-xdpi="38.965256"
       inkscape:export-ydpi="38.965256" />
    <path
       style="fill:none;stroke:#000000;stroke-width:6.25000000000000000;stroke-linecap:butt;stroke-linejoin:miter;stroke-miterlimit:4;stroke-opacity:1;stroke-dasharray:none"
       d="m 197.93651,547.94467 467.02914,0 0,-30.80054"
       id="path4874"
       inkscape:connector-curvature="0"
       sodipodi:nodetypes="ccc"
       inkscape:export-filename="/Users/mturner/workspace/wcwave/vwplatform/app/static/images/path4870.png"
       inkscape:export-xdpi="38.965256"
       inkscape:export-ydpi="38.965256" />
    <g
       transform="matrix(1.0433089,0,0,-1.0433089,110.53966,312.62511)"
       inkscape:label="ink_ext_XXXXXX"
       id="g5422"
       style="fill:#000000;stroke:#000000;stroke-width:1.91697779999999995;stroke-miterlimit:4;stroke-dasharray:none">
      <g
         transform="scale(0.1,0.1)"
         id="g5424"
         style="fill:#000000;stroke:#000000;stroke-width:19.16977800000000087;stroke-miterlimit:4;stroke-dasharray:none">
        <path
           id="path5426"
           style="fill:#000000;fill-opacity:1;fill-rule:nonzero;stroke:#000000;stroke-width:19.16977800000000087;stroke-miterlimit:4;stroke-dasharray:none"
           d="m 166.152,705.969 c -3.589,22.269 -18.312,42.379 -46.332,42.379 -21.9098,0 -45.2497,-5.75 -73.2692,-33.75 -29.8086,-29.809 -32.3281,-63.219 -32.3281,-74.34 0,-22.27 15.8086,-63.938 66.0898,-63.938 85.4685,0 122.8285,120.668 122.8285,172.028 0,57.109 -33.411,93.019 -77.578,93.019 -52.0825,0 -68.5903,-46.687 -68.5903,-56.726 0,-5.032 2.8789,-12.582 13.6367,-12.582 11.8633,0 19.3906,10.781 19.3906,19.031 0,12.578 -11.1172,12.578 -16.8672,12.578 15.7969,26.582 41.2972,28.73 51.7192,28.73 26.218,0 51.359,-18.691 51.359,-65.019 0,-14 -2.16,-32.309 -9.699,-61.41 l -0.36,0 z M 81.4023,586.379 c -39.5195,0 -39.5195,36.98 -39.5195,40.578 0,9.703 8.9766,59.981 23.6992,81.531 14.3789,20.469 31.9688,31.969 54.231,31.969 39.136,0 39.859,-40.227 39.859,-47.418 0,-25.84 -22.981,-106.66 -78.2814,-106.66"
           inkscape:connector-curvature="0" />
        <path
           id="path5428"
           style="fill:#000000;fill-opacity:1;fill-rule:nonzero;stroke:#000000;stroke-width:19.16977800000000087;stroke-miterlimit:4;stroke-dasharray:none"
           d="m 374.281,763.797 c 0,23.703 -6.468,73.613 -43.09,73.613 -49.921,0 -105.23,-101.269 -105.23,-183.519 0,-33.75 10.422,-73.621 43.109,-73.621 50.629,0 105.223,103.078 105.223,183.527 l -0.012,0 z m -110.25,-49.199 c 6.11,22.98 13.282,51.699 27.66,77.199 9.692,17.613 22.981,37.723 39.141,37.723 17.59,0 19.75,-22.981 19.75,-43.45 0,-17.613 -2.871,-35.922 -11.48,-71.472 l -75.059,0 -0.012,0 z m 71.821,-11.5 c -3.95,-16.52 -11.5,-47.051 -25.141,-72.91 -12.578,-24.418 -26.219,-42.02 -41.66,-42.02 -11.86,0 -19.41,10.41 -19.41,43.812 0,15.079 2.16,35.918 11.5,71.11 l 74.699,0"
           inkscape:connector-curvature="0" />
        <path
           id="path5430"
           style="fill:#000000;stroke:#000000;stroke-width:19.16977800000000087;stroke-linecap:butt;stroke-linejoin:miter;stroke-miterlimit:4;stroke-opacity:1;stroke-dasharray:none"
           d="m 0,430.828 388.66,0"
           inkscape:connector-curvature="0" />
        <path
           id="path5432"
           style="fill:#000000;fill-opacity:1;fill-rule:nonzero;stroke:#000000;stroke-width:19.16977800000000087;stroke-miterlimit:4;stroke-dasharray:none"
           d="m 191.152,216.969 c -3.589,22.269 -18.312,42.379 -46.332,42.379 -21.91,0 -45.2497,-5.75 -73.2692,-33.75 -29.8086,-29.809 -32.3281,-63.219 -32.3281,-74.34 0,-22.27 15.8086,-63.9377 66.0903,-63.9377 85.468,0 122.828,120.6677 122.828,172.0277 0,57.109 -33.411,93.019 -77.578,93.019 -52.0825,0 -68.5903,-46.687 -68.5903,-56.726 0,-5.032 2.8789,-12.582 13.6367,-12.582 11.8636,0 19.3906,10.781 19.3906,19.031 0,12.578 -11.117,12.578 -16.8672,12.578 15.7972,26.582 41.2972,28.73 51.7192,28.73 26.218,0 51.359,-18.691 51.359,-65.019 0,-14 -2.16,-32.309 -9.699,-61.41 l -0.36,0 z M 106.402,97.3789 c -39.5192,0 -39.5192,36.9801 -39.5192,40.5781 0,9.703 8.9766,59.981 23.6992,81.531 14.379,20.469 31.969,31.969 54.231,31.969 39.136,0 39.859,-40.227 39.859,-47.418 0,-25.84 -22.981,-106.6601 -78.281,-106.6601"
           inkscape:connector-curvature="0" />
        <path
           id="path5434"
           style="fill:#000000;fill-opacity:1;fill-rule:nonzero;stroke:#000000;stroke-width:19.16977800000000087;stroke-miterlimit:4;stroke-dasharray:none"
           d="m 308.852,238.879 33.769,0 c 7.172,0 10.77,0 10.77,7.191 0,3.95 -3.59,3.95 -10.059,3.95 l -31.59,0 c 12.918,50.98 14.719,58.168 14.719,60.328 0,6.109 -4.309,9.699 -10.41,9.699 -1.078,0 -11.141,-0.359 -14.371,-12.938 l -14,-57.089 -33.77,0 c -7.168,0 -10.769,0 -10.769,-6.832 0,-4.309 2.879,-4.309 10.05,-4.309 l 31.61,0 c -25.86,-102 -27.301,-108.09 -27.301,-114.559 0,-19.39 13.641,-33.0505 33.051,-33.0505 36.629,0 57.09,52.4375 57.09,55.3085 0,3.59 -2.871,3.59 -4.309,3.59 -3.223,0 -3.582,-1.078 -5.371,-5.027 -15.449,-37.364 -34.481,-45.973 -46.691,-45.973 -7.547,0 -11.137,4.672 -11.137,16.52 0,8.632 0.719,11.14 2.16,17.23 l 26.578,105.949"
           inkscape:connector-curvature="0" />
        <path
           id="path5436"
           style="fill:#000000;fill-opacity:1;fill-rule:nonzero;stroke:#000000;stroke-width:19.16977800000000087;stroke-miterlimit:4;stroke-dasharray:none"
           d="m 777.602,458.66 c 5.39,0 12.199,0 12.199,7.188 0,7.191 -6.809,7.191 -11.84,7.191 l -215.121,0 c -5.027,0 -11.86,0 -11.86,-7.191 0,-7.188 6.833,-7.188 12.219,-7.188 l 214.41,0 -0.007,0 z m 0.359,-69.672 c 5.031,0 11.84,0 11.84,7.192 0,7.168 -6.809,7.168 -12.199,7.168 l -214.411,0 c -5.39,0 -12.218,0 -12.218,-7.168 0,-7.192 6.828,-7.192 11.859,-7.192 l 215.129,0"
           inkscape:connector-curvature="0" />
        <path
           id="path5438"
           style="fill:#000000;fill-opacity:1;fill-rule:nonzero;stroke:#000000;stroke-width:19.16977800000000087;stroke-miterlimit:4;stroke-dasharray:none"
           d="m 1210.15,705.969 c -3.59,22.269 -18.31,42.379 -46.33,42.379 -21.91,0 -45.25,-5.75 -73.27,-33.75 -29.81,-29.809 -32.33,-63.219 -32.33,-74.34 0,-22.27 15.81,-63.938 66.09,-63.938 85.47,0 122.83,120.668 122.83,172.028 0,57.109 -33.41,93.019 -77.58,93.019 -52.08,0 -68.59,-46.687 -68.59,-56.726 0,-5.032 2.88,-12.582 13.64,-12.582 11.86,0 19.39,10.781 19.39,19.031 0,12.578 -11.12,12.578 -16.87,12.578 15.8,26.582 41.3,28.73 51.72,28.73 26.22,0 51.36,-18.691 51.36,-65.019 0,-14 -2.16,-32.309 -9.7,-61.41 l -0.36,0 z m -84.75,-119.59 c -39.52,0 -39.52,36.98 -39.52,40.578 0,9.703 8.98,59.981 23.7,81.531 14.38,20.469 31.97,31.969 54.23,31.969 39.14,0 39.86,-40.227 39.86,-47.418 0,-25.84 -22.98,-106.66 -78.28,-106.66"
           inkscape:connector-curvature="0" />
        <path
           id="path5440"
           style="fill:#000000;stroke:#000000;stroke-width:19.16977800000000087;stroke-linecap:butt;stroke-linejoin:miter;stroke-miterlimit:4;stroke-opacity:1;stroke-dasharray:none"
           d="m 952.949,430.828 392.911,0"
           inkscape:connector-curvature="0" />
        <path
           id="path5442"
           style="fill:#000000;fill-opacity:1;fill-rule:nonzero;stroke:#000000;stroke-width:19.16977800000000087;stroke-miterlimit:4;stroke-dasharray:none"
           d="m 1119.15,216.969 c -3.59,22.269 -18.31,42.379 -46.33,42.379 -21.91,0 -45.25,-5.75 -73.269,-33.75 -29.809,-29.809 -32.328,-63.219 -32.328,-74.34 0,-22.27 15.808,-63.9377 66.087,-63.9377 85.47,0 122.83,120.6677 122.83,172.0277 0,57.109 -33.41,93.019 -77.58,93.019 -52.08,0 -68.59,-46.687 -68.59,-56.726 0,-5.032 2.88,-12.582 13.64,-12.582 11.86,0 19.39,10.781 19.39,19.031 0,12.578 -11.12,12.578 -16.87,12.578 15.8,26.582 41.3,28.73 51.72,28.73 26.22,0 51.36,-18.691 51.36,-65.019 0,-14 -2.16,-32.309 -9.7,-61.41 l -0.36,0 z M 1034.4,97.3789 c -39.517,0 -39.517,36.9801 -39.517,40.5781 0,9.703 8.977,59.981 23.697,81.531 14.38,20.469 31.97,31.969 54.23,31.969 39.14,0 39.86,-40.227 39.86,-47.418 0,-25.84 -22.98,-106.6601 -78.28,-106.6601"
           inkscape:connector-curvature="0" />
        <path
           id="path5444"
           style="fill:#000000;fill-opacity:1;fill-rule:nonzero;stroke:#000000;stroke-width:19.16977800000000087;stroke-miterlimit:4;stroke-dasharray:none"
           d="m 1211.64,125.027 c 19.39,20.832 29.81,29.813 42.73,40.942 0,0.359 22.27,19.39 35.2,32.328 34.11,33.391 42.02,50.641 42.02,52.082 0,3.578 -3.23,3.578 -3.95,3.578 -2.52,0 -3.59,-0.719 -5.39,-3.937 -10.77,-17.25 -18.31,-22.981 -26.92,-22.981 -8.62,0 -12.94,5.379 -18.33,11.481 -6.81,8.269 -12.92,15.437 -24.78,15.437 -26.94,0 -43.45,-33.387 -43.45,-40.937 0,-1.801 1.08,-3.95 4.31,-3.95 3.23,0 3.95,1.797 4.67,3.95 6.81,16.519 27.66,16.878 30.52,16.878 7.55,0 14.38,-2.5 22.64,-5.371 14.36,-5.386 18.31,-5.386 27.64,-5.386 -12.92,-15.453 -43.09,-41.301 -49.92,-47.051 l -32.31,-30.172 c -24.42,-24.059 -37,-44.5274 -37,-47.0508 0,-3.5899 3.59,-3.5899 4.31,-3.5899 2.88,0 3.59,0.7227 5.75,4.6719 8.27,12.5588 19.03,22.2698 30.53,22.2698 8.25,0 11.84,-3.231 20.83,-13.641 6.11,-7.5507 12.56,-13.3007 22.98,-13.3007 35.55,0 56.39,45.6137 56.39,55.3127 0,1.801 -1.44,3.59 -4.31,3.59 -3.23,0 -3.95,-2.16 -5.03,-4.672 -8.27,-23.34 -31.25,-30.168 -43.09,-30.168 -7.19,0 -13.66,2.16 -21.19,4.668 -12.22,4.672 -17.61,6.109 -25.14,6.109 -0.72,0 -6.47,0 -9.7,-1.078"
           inkscape:connector-curvature="0" />
        <path
           id="path5446"
           style="fill:#000000;fill-opacity:1;fill-rule:nonzero;stroke:#000000;stroke-width:19.16977800000000087;stroke-miterlimit:4;stroke-dasharray:none"
           d="m 1538.65,0 94.45,0 0,19.75 -74.7,0 0,822.078 74.7,0 0,19.75 -94.45,0 0,-861.578"
           inkscape:connector-curvature="0" />
        <path
           id="path5448"
           style="fill:#000000;fill-opacity:1;fill-rule:nonzero;stroke:#000000;stroke-width:19.16977800000000087;stroke-miterlimit:4;stroke-dasharray:none"
           d="m 1820.67,486.309 c -0.36,1.082 -1.8,3.949 -1.8,5.031 0,0.359 6.47,5.39 10.42,8.25 l 62.84,48.48 c 33.77,24.778 47.77,26.219 58.55,27.297 2.88,0.363 6.47,0.723 6.47,7.192 0,1.441 -1.08,3.949 -3.95,3.949 -7.91,0 -16.87,-1.078 -25.5,-1.078 -12.94,0 -26.94,1.078 -39.86,1.078 -2.52,0 -6.83,0 -6.83,-7.188 0,-2.523 1.8,-3.59 4.31,-3.953 7.89,-0.719 11.13,-2.519 11.13,-7.527 0,-6.473 -10.77,-14.731 -12.92,-16.531 l -140.06,-107.731 28.72,115.281 c 3.23,12.918 3.95,16.52 30.17,16.52 8.98,0 12.22,0 12.22,7.191 0,3.227 -2.87,3.95 -5.03,3.95 -10.06,0 -35.92,-1.082 -45.97,-1.082 -10.42,0 -35.92,1.082 -46.33,1.082 -2.52,0 -7.19,0 -7.19,-6.832 0,-4.309 3.23,-4.309 10.42,-4.309 4.66,0 11.13,-0.359 15.44,-0.719 5.75,-0.722 7.91,-1.801 7.91,-5.73 0,-1.442 -0.36,-2.52 -1.44,-6.832 l -48.12,-192.86 c -3.59,-14.019 -4.31,-16.871 -32.69,-16.871 -6.11,0 -10.06,0 -10.06,-6.828 0,-4.309 4.31,-4.309 5.39,-4.309 10.06,0 35.56,1.079 45.61,1.079 7.55,0 15.45,-0.36 22.98,-0.36 7.91,0 15.81,-0.719 23.34,-0.719 2.52,0 7.19,0 7.19,7.188 0,3.949 -3.23,3.949 -10.05,3.949 -13.3,0 -23.36,0 -23.36,6.453 0,2.52 2.16,10.418 3.23,15.809 5.03,18.668 9.7,37.699 14.38,56.379 l 53.52,41.672 41.66,-96.61 c 4.31,-9.703 4.31,-10.422 4.31,-12.582 0,-10.769 -15.45,-11.121 -18.69,-11.121 -3.94,0 -7.89,0 -7.89,-7.187 0,-3.95 4.31,-3.95 5.03,-3.95 14.36,0 29.44,1.079 43.81,1.079 7.89,0 27.3,-1.079 35.19,-1.079 1.8,0 6.47,0 6.47,7.188 0,3.949 -3.95,3.949 -7.19,3.949 -14.72,0.363 -19.39,3.582 -24.78,16.16 l -51,117.801"
           inkscape:connector-curvature="0" />
        <path
           id="path5450"
           style="fill:#000000;fill-opacity:1;fill-rule:nonzero;stroke:#000000;stroke-width:19.16977800000000087;stroke-miterlimit:4;stroke-dasharray:none"
           d="m 2086.75,255.027 c 0,1.082 0,1.801 -6.11,7.891 -44.89,45.25 -56.37,113.141 -56.37,168.082 0,62.5 13.64,124.98 57.81,169.879 4.67,4.309 4.67,5.031 4.67,6.109 0,2.52 -1.44,3.59 -3.59,3.59 -3.59,0 -35.91,-24.418 -57.09,-70.031 -18.33,-39.52 -22.62,-79.367 -22.62,-109.547 0,-28.02 3.94,-71.473 23.7,-112.051 21.55,-44.172 52.42,-67.519 56.02,-67.519 2.16,0 3.59,1.078 3.59,3.59"
           inkscape:connector-curvature="0" />
        <path
           id="path5452"
           style="fill:#000000;fill-opacity:1;fill-rule:nonzero;stroke:#000000;stroke-width:19.16977800000000087;stroke-miterlimit:4;stroke-dasharray:none"
           d="m 2271.28,520.797 c 0,23.703 -6.47,73.613 -43.09,73.613 -49.92,0 -105.23,-101.269 -105.23,-183.519 0,-33.75 10.42,-73.621 43.11,-73.621 50.63,0 105.22,103.078 105.22,183.527 l -0.01,0 z m -110.25,-49.199 c 6.11,22.98 13.28,51.699 27.66,77.199 9.69,17.613 22.98,37.723 39.14,37.723 17.59,0 19.75,-22.981 19.75,-43.45 0,-17.613 -2.87,-35.922 -11.48,-71.472 l -75.06,0 -0.01,0 z m 71.82,-11.5 c -3.95,-16.52 -11.5,-47.051 -25.14,-72.91 -12.58,-24.418 -26.22,-42.02 -41.66,-42.02 -11.86,0 -19.41,10.41 -19.41,43.812 0,15.079 2.16,35.918 11.5,71.11 l 74.7,0"
           inkscape:connector-curvature="0" />
        <path
           id="path5454"
           style="fill:#000000;fill-opacity:1;fill-rule:nonzero;stroke:#000000;stroke-width:19.16977800000000087;stroke-miterlimit:4;stroke-dasharray:none"
           d="m 2389.67,431 c 0,28.02 -3.95,71.469 -23.7,112.059 -21.55,44.171 -52.44,67.519 -56.03,67.519 -2.16,0 -3.59,-1.437 -3.59,-3.59 0,-1.078 0,-1.8 6.83,-8.269 35.19,-35.551 55.67,-92.66 55.67,-167.719 0,-61.41 -13.3,-124.621 -57.83,-169.871 -4.67,-4.301 -4.67,-5.02 -4.67,-6.09 0,-2.16 1.44,-3.59 3.59,-3.59 3.59,0 35.92,24.418 57.11,70.031 18.31,39.5 22.63,79.379 22.63,109.528"
           inkscape:connector-curvature="0" />
        <path
           id="path5456"
           style="fill:#000000;fill-opacity:1;fill-rule:nonzero;stroke:#000000;stroke-width:19.16977800000000087;stroke-miterlimit:4;stroke-dasharray:none"
           d="m 2736.28,3.59766 c 0,1.4414 -0.72,2.16015 -1.44,3.23047 -13.3,13.28127 -37.36,37.33987 -61.42,76.14067 -57.81,92.6602 -84.03,209.3792 -84.03,347.6402 0,96.61 12.92,221.231 72.19,328.27 28.36,51 57.81,80.441 73.63,96.25 1.08,1.078 1.08,1.801 1.08,2.879 0,3.582 -2.52,3.582 -7.55,3.582 -5.03,0 -5.75,0 -11.14,-5.371 -120.31,-109.551 -158.02,-274.031 -158.02,-425.231 0,-141.14 32.33,-283.359 123.55,-390.7302 7.17,-8.2695 20.83,-23 35.55,-35.91796 4.31,-4.3124962 5.03,-4.3124962 10.06,-4.3124962 5.03,0 7.55,0 7.55,3.5898462"
           inkscape:connector-curvature="0" />
        <path
           id="path5458"
           style="fill:#000000;fill-opacity:1;fill-rule:nonzero;stroke:#000000;stroke-width:19.16977800000000087;stroke-miterlimit:4;stroke-dasharray:none"
           d="m 2958.15,705.969 c -3.59,22.269 -18.31,42.379 -46.33,42.379 -21.91,0 -45.25,-5.75 -73.27,-33.75 -29.81,-29.809 -32.33,-63.219 -32.33,-74.34 0,-22.27 15.81,-63.938 66.09,-63.938 85.47,0 122.83,120.668 122.83,172.028 0,57.109 -33.41,93.019 -77.58,93.019 -52.08,0 -68.59,-46.687 -68.59,-56.726 0,-5.032 2.88,-12.582 13.64,-12.582 11.86,0 19.39,10.781 19.39,19.031 0,12.578 -11.12,12.578 -16.87,12.578 15.8,26.582 41.3,28.73 51.72,28.73 26.22,0 51.36,-18.691 51.36,-65.019 0,-14 -2.16,-32.309 -9.7,-61.41 l -0.36,0 z m -84.75,-119.59 c -39.52,0 -39.52,36.98 -39.52,40.578 0,9.703 8.98,59.981 23.7,81.531 14.38,20.469 31.97,31.969 54.23,31.969 39.14,0 39.86,-40.227 39.86,-47.418 0,-25.84 -22.98,-106.66 -78.28,-106.66"
           inkscape:connector-curvature="0" />
        <path
           id="path5460"
           style="fill:#000000;fill-opacity:1;fill-rule:nonzero;stroke:#000000;stroke-width:19.16977800000000087;stroke-miterlimit:4;stroke-dasharray:none"
           d="m 3175.98,824.129 c 0.36,1.441 1.08,3.59 1.08,5.391 0,3.589 -2.52,3.949 -4.31,3.949 -3.59,0 -3.95,-0.719 -5.39,-7.192 l -59.61,-237.386 c -27.3,3.226 -40.95,16.519 -40.95,40.218 0,7.188 0,16.52 19.41,66.801 1.42,4.309 3.94,10.418 3.94,17.61 0,16.16 -11.48,29.437 -29.44,29.437 -34.12,0 -47.41,-52.059 -47.41,-55.297 0,-3.59 3.58,-3.59 4.3,-3.59 3.59,0 3.95,0.719 5.75,6.469 9.7,34.109 24.06,44.531 36.28,44.531 2.88,0 8.97,0 8.97,-11.5 0,-9.332 -3.59,-18.312 -8.25,-30.89 -17.25,-45.25 -17.25,-54.582 -17.25,-60.692 0,-34.121 28.02,-48.84 62.5,-51 -2.87,-12.918 -2.87,-13.64 -7.91,-32.691 -1.08,-3.938 -8.27,-33.027 -8.27,-34.109 0,-0.36 0,-3.59 4.31,-3.59 0.72,0 2.52,0 3.23,1.441 1.08,0.719 3.23,9.699 4.31,14.719 l 13.64,53.519 c 13.3,0 44.89,0 78.66,38.442 14.72,16.519 22.27,32.308 26.22,43.09 3.23,8.968 11.14,40.218 11.14,56.019 0,20.129 -9.7,25.141 -15.81,25.141 -8.97,0 -17.95,-9.328 -17.95,-17.231 0,-4.668 2.16,-6.828 5.39,-9.691 3.95,-3.949 12.92,-13.297 12.92,-30.527 0,-22.981 -18.67,-52.442 -31.25,-65.36 -31.59,-31.972 -54.58,-31.972 -67.52,-31.972 l 59.27,235.953"
           inkscape:connector-curvature="0" />
        <path
           id="path5462"
           style="fill:#000000;stroke:#000000;stroke-width:19.16977800000000087;stroke-linecap:butt;stroke-linejoin:miter;stroke-miterlimit:4;stroke-opacity:1;stroke-dasharray:none"
           d="m 2792.3,430.828 456.84,0"
           inkscape:connector-curvature="0" />
        <path
           id="path5464"
           style="fill:#000000;fill-opacity:1;fill-rule:nonzero;stroke:#000000;stroke-width:19.16977800000000087;stroke-miterlimit:4;stroke-dasharray:none"
           d="m 2990.15,216.969 c -3.59,22.269 -18.31,42.379 -46.33,42.379 -21.91,0 -45.25,-5.75 -73.27,-33.75 -29.81,-29.809 -32.33,-63.219 -32.33,-74.34 0,-22.27 15.81,-63.9377 66.09,-63.9377 85.47,0 122.83,120.6677 122.83,172.0277 0,57.109 -33.41,93.019 -77.58,93.019 -52.08,0 -68.59,-46.687 -68.59,-56.726 0,-5.032 2.88,-12.582 13.64,-12.582 11.86,0 19.39,10.781 19.39,19.031 0,12.578 -11.12,12.578 -16.87,12.578 15.8,26.582 41.3,28.73 51.72,28.73 26.22,0 51.36,-18.691 51.36,-65.019 0,-14 -2.16,-32.309 -9.7,-61.41 l -0.36,0 z M 2905.4,97.3789 c -39.52,0 -39.52,36.9801 -39.52,40.5781 0,9.703 8.98,59.981 23.7,81.531 14.38,20.469 31.97,31.969 54.23,31.969 39.14,0 39.86,-40.227 39.86,-47.418 0,-25.84 -22.98,-106.6601 -78.28,-106.6601"
           inkscape:connector-curvature="0" />
        <path
           id="path5466"
           style="fill:#000000;fill-opacity:1;fill-rule:nonzero;stroke:#000000;stroke-width:19.16977800000000087;stroke-miterlimit:4;stroke-dasharray:none"
           d="m 3082.64,125.027 c 19.39,20.832 29.81,29.813 42.73,40.942 0,0.359 22.27,19.39 35.2,32.328 34.11,33.391 42.02,50.641 42.02,52.082 0,3.578 -3.23,3.578 -3.95,3.578 -2.52,0 -3.59,-0.719 -5.39,-3.937 -10.77,-17.25 -18.31,-22.981 -26.92,-22.981 -8.62,0 -12.94,5.379 -18.33,11.481 -6.81,8.269 -12.92,15.437 -24.78,15.437 -26.94,0 -43.45,-33.387 -43.45,-40.937 0,-1.801 1.08,-3.95 4.31,-3.95 3.23,0 3.95,1.797 4.67,3.95 6.81,16.519 27.66,16.878 30.52,16.878 7.55,0 14.38,-2.5 22.64,-5.371 14.36,-5.386 18.31,-5.386 27.64,-5.386 -12.92,-15.453 -43.09,-41.301 -49.92,-47.051 l -32.31,-30.172 c -24.42,-24.059 -37,-44.5274 -37,-47.0508 0,-3.5899 3.59,-3.5899 4.31,-3.5899 2.88,0 3.59,0.7227 5.75,4.6719 8.27,12.5588 19.03,22.2698 30.53,22.2698 8.25,0 11.84,-3.231 20.83,-13.641 6.11,-7.5507 12.56,-13.3007 22.98,-13.3007 35.55,0 56.39,45.6137 56.39,55.3127 0,1.801 -1.44,3.59 -4.31,3.59 -3.23,0 -3.95,-2.16 -5.03,-4.672 -8.27,-23.34 -31.25,-30.168 -43.09,-30.168 -7.19,0 -13.66,2.16 -21.19,4.668 -12.22,4.672 -17.61,6.109 -25.14,6.109 -0.72,0 -6.47,0 -9.7,-1.078"
           inkscape:connector-curvature="0" />
        <path
           id="path5468"
           style="fill:#000000;fill-opacity:1;fill-rule:nonzero;stroke:#000000;stroke-width:19.16977800000000087;stroke-miterlimit:4;stroke-dasharray:none"
           d="m 3518.76,423.828 100.2,0 c 5.03,0 11.84,0 11.84,7.172 0,7.188 -6.81,7.188 -11.84,7.188 l -100.2,0 0,100.562 c 0,5.027 0,11.84 -7.19,11.84 -7.19,0 -7.19,-6.813 -7.19,-11.84 l 0,-100.562 -100.55,0 c -5.03,0 -11.86,0 -11.86,-7.188 0,-7.172 6.83,-7.172 11.86,-7.172 l 100.55,0 0,-100.558 c 0,-5.032 0,-11.86 7.19,-11.86 7.19,0 7.19,6.828 7.19,11.86 l 0,100.558"
           inkscape:connector-curvature="0" />
        <path
           id="path5470"
           style="fill:#000000;fill-opacity:1;fill-rule:nonzero;stroke:#000000;stroke-width:19.16977800000000087;stroke-miterlimit:4;stroke-dasharray:none"
           d="m 3836.46,571.059 c 0,8.629 0,9.339 -8.27,9.339 -22.27,-22.98 -53.87,-22.98 -65.36,-22.98 l 0,-11.141 c 7.17,0 28.36,0 47.05,9.34 l 0,-186.027 c 0,-12.942 -1.08,-17.231 -33.41,-17.231 l -11.48,0 0,-11.14 c 12.56,1.078 43.81,1.078 58.17,1.078 14.38,0 45.61,0 58.19,-1.078 l 0,11.14 -11.5,0 c -32.31,0 -33.39,3.938 -33.39,17.231 l 0,201.469"
           inkscape:connector-curvature="0" />
        <path
           id="path5472"
           style="fill:#000000;fill-opacity:1;fill-rule:nonzero;stroke:#000000;stroke-width:19.16977800000000087;stroke-miterlimit:4;stroke-dasharray:none"
           d="m 4099.14,430.609 c 0,141.141 -32.33,283.379 -123.55,390.75 -7.17,8.27 -20.83,22.981 -35.55,35.918 -4.31,4.301 -5.03,4.301 -10.06,4.301 -4.31,0 -7.55,0 -7.55,-3.578 0,-1.441 1.44,-2.871 2.16,-3.59 12.58,-12.941 36.64,-37 60.7,-75.781 57.81,-92.66 84.03,-209.371 84.03,-347.66 0,-96.61 -12.92,-221.231 -72.19,-328.25 -28.36,-51.0002 -58.17,-80.8088 -73.27,-95.89087 -0.72,-1.07813 -1.44,-2.16016 -1.44,-3.23047 0,-3.5898475 3.23,-3.5898475 7.55,-3.5898475 5.03,0 5.75,0 11.14,5.3906275 C 4061.42,114.93 4099.13,279.43 4099.13,430.617"
           inkscape:connector-curvature="0" />
        <path
           id="path5474"
           style="fill:#000000;fill-opacity:1;fill-rule:nonzero;stroke:#000000;stroke-width:19.16977800000000087;stroke-miterlimit:4;stroke-dasharray:none"
           d="m 4253.6,19.75 -74.7,0 0,-19.75 94.45,0 0,861.578 -94.45,0 0,-19.75 74.7,0 0,-822.078"
           inkscape:connector-curvature="0" />
      </g>
    </g>
  </g>
</svg>
