<?xml version="1.0" encoding="UTF-8" standalone="no"?>
<!-- Created with Inkscape (http://www.inkscape.org/) -->

<svg
   xmlns:dc="http://purl.org/dc/elements/1.1/"
   xmlns:cc="http://creativecommons.org/ns#"
   xmlns:rdf="http://www.w3.org/1999/02/22-rdf-syntax-ns#"
   xmlns:svg="http://www.w3.org/2000/svg"
   xmlns="http://www.w3.org/2000/svg"
   xmlns:sodipodi="http://sodipodi.sourceforge.net/DTD/sodipodi-0.dtd"
   xmlns:inkscape="http://www.inkscape.org/namespaces/inkscape"
   width="744.09448819"
   height="1052.3622047"
   id="svg4978"
   version="1.1"
   inkscape:version="0.48.5 r10040"
   sodipodi:docname="New document 15">
  <defs
     id="defs4980" />
  <sodipodi:namedview
     id="base"
     pagecolor="#ffffff"
     bordercolor="#666666"
     borderopacity="1.0"
     inkscape:pageopacity="0.0"
     inkscape:pageshadow="2"
     inkscape:zoom="0.7"
     inkscape:cx="385.86775"
     inkscape:cy="1087.1106"
     inkscape:document-units="px"
     inkscape:current-layer="layer1"
     showgrid="false"
     inkscape:window-width="1193"
     inkscape:window-height="1837"
     inkscape:window-x="1441"
     inkscape:window-y="23"
     inkscape:window-maximized="0" />
  <metadata
     id="metadata4983">
    <rdf:RDF>
      <cc:Work
         rdf:about="">
        <dc:format>image/svg+xml</dc:format>
        <dc:type
           rdf:resource="http://purl.org/dc/dcmitype/StillImage" />
        <dc:title></dc:title>
      </cc:Work>
    </rdf:RDF>
  </metadata>
  <g
     inkscape:label="Layer 1"
     inkscape:groupmode="layer"
     id="layer1">
    <path
       style="fill:#ffffff;stroke:#ffffff;stroke-width:1.24663711000000021px;stroke-linecap:butt;stroke-linejoin:miter;stroke-opacity:1"
       d="m 626.17187,593.07647 -42.18283,25.71428 45.51306,22.14286 -99.9067,0.71429 -37.74251,-16.42857 -356.33384,0 34.96734,22.5 -176.6588859,-30.45846 167.7666259,-28.9253 -23.93694,15.40241 344.20503,0 18.83025,-12.11647 z"
       id="path4986"
       inkscape:connector-curvature="0"
       sodipodi:nodetypes="ccccccccccccc" />
    <path
       style="fill:#ffffff;stroke:#ffffff;stroke-width:0.88494324999999985px;stroke-linecap:butt;stroke-linejoin:miter;stroke-opacity:1"
       d="m 160.49666,604.60551 20.234,-14.93338 15.81932,0 15.12395,-19.33318 c 0,0 -99.73888,-57.5059 -91.64527,-117.23946 8.0936,-59.73356 56.65519,-74.93847 56.65519,-74.93847 l 16.18721,-46.70078 -36.78909,46.15775 c 0,0 -22.80923,-7.05942 -22.07346,-33.66801 0.73578,-26.60858 27.95972,-28.78071 27.95972,-28.78071 0,0 -16.92298,-6.51639 -46.35427,3.80123 -29.431268,10.31761 8.82939,-14.66188 36.05332,-19.00614 27.22392,-4.34426 19.13033,-2.17213 19.13033,-2.17213 0,0 14.71563,-28.78071 52.97629,-29.86678 38.26066,-1.08606 48.5616,14.11885 48.5616,14.11885 0,0 18.39455,10.31761 29.43127,41.27045 11.03673,30.95285 37.52488,76.02453 39.73222,97.74583 2.20734,21.72129 22.07346,26.06555 22.07346,26.06555 0,0 8.0936,-8.14549 27.22392,-2.17212 19.13033,5.97335 -19.13032,-56.47538 23.54502,-107.52042 42.67536,-51.04504 79.46444,-60.81962 91.97273,-60.81962 12.5083,0 48.1432,-8.59092 71.37084,17.92007 15.20708,17.35668 -16.39949,47.27307 -18.12684,89.06333 -2.43839,58.99253 20.3342,130.86477 20.3342,130.86477 0,0 -22.07347,-10.31761 -30.16706,-28.23768 -8.0936,-17.92007 -16.18719,-44.52865 -16.18719,-44.52865 0,0 -15.45143,26.06555 -6.62205,49.95897 8.82938,23.89343 25.01658,42.35653 25.01658,42.35653 0,0 -35.31753,2.17212 -50.76895,-30.40982 -15.45141,-32.58193 -16.1872,-39.64136 -16.1872,-39.64136 0,0 -16.92298,21.17827 -9.56517,47.24382 7.35783,26.06555 26.48816,51.04504 26.48816,51.04504 0,0 -30.90284,-4.34426 -47.82582,-22.80736 -16.92298,-18.4631 -19.13033,-32.58194 -19.13033,-32.58194 0,0 -31.63862,29.86678 -63.27724,39.09833 -31.63862,9.23155 -84.61491,22.26432 -84.61491,22.26432 l -15.45142,36.92621 -27.22392,-0.54304 10.30094,-9.77458 10.30094,0.54303 8.0936,-26.06555 c 0,0 -8.82938,2.17212 -25.75237,2.17212 -16.92298,0 -22.80924,0 -22.80924,0 l -13.97984,19.54917 -15.45142,14.11885 z"
       id="path4988"
       inkscape:connector-curvature="0"
       sodipodi:nodetypes="ccccscccscsscscsscssssscscscscscscsccccccscccc" />
    <path
       style="fill:#ffffff;stroke:#ffffff;stroke-width:0.88494324999999985px;stroke-linecap:butt;stroke-linejoin:miter;stroke-opacity:1"
       d="m 175.2123,285.84552 c 0,0 25.01659,-22.80736 55.91942,-22.26433 30.90284,0.54304 52.97629,21.7213 52.97629,21.7213 0,0 35.31753,-23.35039 31.63863,-30.95284 -3.67891,-7.60246 -25.01659,1.08606 -25.01659,1.08606 0,0 8.82938,-31.49588 -9.56516,-36.9262 -18.39456,-5.43032 -33.84598,27.15161 -33.84598,27.15161 0,0 -10.30094,-33.668 -54.44785,-26.60858 -44.1469,7.05942 0,38.5553 0,38.5553 0,0 -30.90283,-12.48975 -38.26065,-3.80123 -7.35782,8.68852 20.60189,32.03891 20.60189,32.03891 z"
       id="path4990"
       inkscape:connector-curvature="0" />
    <path
       style="fill:#ffffff;stroke:#ffffff;stroke-width:1px;stroke-linecap:butt;stroke-linejoin:miter;stroke-opacity:1"
       d="M 196.42857,625.21933 330,731.6479 l 0,-107.14286 40.71429,0 0,107.14286 97.85714,-106.42857 21.42857,0 -120,132.14285 0,22.85715 -40,0 0,-25.71429 -161.42857,-128.57143 z"
       id="path4994"
       inkscape:connector-curvature="0" />
    <path
       sodipodi:type="arc"
       style="fill:#ffffff;stroke:#ffffff;stroke-width:2.75000000000000000;stroke-miterlimit:4;stroke-dasharray:none"
       id="path4996"
       sodipodi:cx="347.85715"
       sodipodi:cy="797.36218"
       sodipodi:rx="38.57143"
       sodipodi:ry="38.57143"
       d="m 386.42858,797.36218 a 38.57143,38.57143 0 1 1 -77.14286,0 38.57143,38.57143 0 1 1 77.14286,0 z"
       transform="translate(1.4285714,11.428571)" />
    <text
       xml:space="preserve"
       style="font-size:40px;font-style:normal;font-weight:normal;line-height:125%;letter-spacing:0px;word-spacing:0px;fill:#ffffff;fill-opacity:1;stroke:#ffffff;font-family:Sans"
       x="96.428574"
       y="831.64795"
       id="text4998"
       sodipodi:linespacing="125%"><tspan
         sodipodi:role="line"
         id="tspan5000"
         x="96.428574"
         y="831.64795"
         style="font-size:60px;font-weight:bold;-inkscape-font-specification:Sans Bold;fill:#ffffff;stroke:#ffffff">W</tspan></text>
    <text
       sodipodi:linespacing="125%"
       id="text5002"
       y="833.07648"
       x="527.85712"
       style="font-size:40px;font-style:normal;font-weight:normal;line-height:125%;letter-spacing:0px;word-spacing:0px;fill:#ffffff;fill-opacity:1;stroke:#ffffff;font-family:Sans"
       xml:space="preserve"><tspan
         style="font-size:60px;font-weight:bold;-inkscape-font-specification:Sans Bold;fill:#ffffff;stroke:#ffffff"
         y="833.07648"
         x="527.85712"
         id="tspan5004"
         sodipodi:role="line">E</tspan></text>
    <path
       style="fill:#ffffff;stroke:#ffffff;stroke-width:15;stroke-linecap:butt;stroke-linejoin:miter;stroke-opacity:1;stroke-miterlimit:4;stroke-dasharray:none"
       d="m 150.71429,811.6479 387.85714,0"
       id="path5006"
       inkscape:connector-curvature="0" />
    <path
       sodipodi:type="arc"
       style="fill:none;stroke:#ffffff;stroke-width:0.54932057999999995;stroke-miterlimit:4;stroke-dasharray:none"
       id="path5516"
       sodipodi:cx="204.05081"
       sodipodi:cy="295.75793"
       sodipodi:rx="4.0406103"
       sodipodi:ry="4.0406103"
       d="m 208.09142,295.75793 a 4.0406103,4.0406103 0 1 1 -8.08122,0 4.0406103,4.0406103 0 1 1 8.08122,0 z"
       transform="matrix(1.8204306,0,0,1.8204306,-171.95522,-238.10318)" />
  </g>
</svg>
