<?xml version="1.0" encoding="UTF-8" standalone="no"?>
<!-- Created with Inkscape (http://www.inkscape.org/) -->

<svg
   xmlns:dc="http://purl.org/dc/elements/1.1/"
   xmlns:cc="http://creativecommons.org/ns#"
   xmlns:rdf="http://www.w3.org/1999/02/22-rdf-syntax-ns#"
   xmlns:svg="http://www.w3.org/2000/svg"
   xmlns="http://www.w3.org/2000/svg"
   xmlns:sodipodi="http://sodipodi.sourceforge.net/DTD/sodipodi-0.dtd"
   xmlns:inkscape="http://www.inkscape.org/namespaces/inkscape"
   width="744.09448819"
   height="1052.3622047"
   id="svg3868"
   version="1.1"
   inkscape:version="0.48.5 r10040"
   sodipodi:docname="search.svg"
   inkscape:export-filename="/Users/mturner/workspace/wcwave/vwplatform/app/static/images/search.png"
   inkscape:export-xdpi="55.051533"
   inkscape:export-ydpi="55.051533">
  <defs
     id="defs3870" />
  <sodipodi:namedview
     id="base"
     pagecolor="#ffffff"
     bordercolor="#666666"
     borderopacity="1.0"
     inkscape:pageopacity="0.0"
     inkscape:pageshadow="2"
     inkscape:zoom="0.98994949"
     inkscape:cx="399.5884"
     inkscape:cy="525.03821"
     inkscape:document-units="px"
     inkscape:current-layer="layer1"
     showgrid="false"
     inkscape:window-width="1127"
     inkscape:window-height="1731"
     inkscape:window-x="1462"
     inkscape:window-y="55"
     inkscape:window-maximized="0" />
  <metadata
     id="metadata3873">
    <rdf:RDF>
      <cc:Work
         rdf:about="">
        <dc:format>image/svg+xml</dc:format>
        <dc:type
           rdf:resource="http://purl.org/dc/dcmitype/StillImage" />
        <dc:title></dc:title>
      </cc:Work>
    </rdf:RDF>
  </metadata>
  <g
     inkscape:label="Layer 1"
     inkscape:groupmode="layer"
     id="layer1">
    <path
       style="fill:#ffffff;stroke:#000000;stroke-width:3.34237956999999986;stroke-linecap:butt;stroke-linejoin:miter;stroke-miterlimit:4;stroke-opacity:1;stroke-dasharray:none"
       d="m 366.83308,537.20644 -133.5499,133.83674 c 0,0 -20.68563,18.69216 -8.23773,31.31263 12.44789,12.62048 27.80793,-5.46129 27.80793,-5.46129 L 388.76324,558.2387"
       id="path3880"
       inkscape:connector-curvature="0"
       inkscape:export-filename="/Users/mturner/workspace/wcwave/vwplatform/app/static/images/search.png"
       inkscape:export-xdpi="55.051533"
       inkscape:export-ydpi="55.051533" />
    <g
       id="g4785"
       transform="translate(178.797,14.142136)"
       inkscape:export-xdpi="55.051533"
       inkscape:export-ydpi="55.051533"
       inkscape:export-filename="/Users/mturner/workspace/wcwave/vwplatform/app/static/images/search.png"
       style="stroke:#000000">
      <path
         transform="translate(2.8571429,-12.142857)"
         d="m 442.44682,447.28082 c 0,79.22065 -64.22102,143.44167 -143.44166,143.44167 -79.22065,0 -143.44167,-64.22102 -143.44167,-143.44167 0,-79.22064 64.22102,-143.44166 143.44167,-143.44166 79.22064,0 143.44166,64.22102 143.44166,143.44166 z"
         sodipodi:ry="143.44167"
         sodipodi:rx="143.44167"
         sodipodi:cy="447.28082"
         sodipodi:cx="299.00516"
         id="path3882"
         style="fill:none;stroke:#000000;stroke-width:8;stroke-miterlimit:4;stroke-dasharray:none"
         sodipodi:type="arc" />
      <path
         inkscape:connector-curvature="0"
         id="path3884"
         d="m 189.54102,516.58395 53.53809,-111.11678 38.3858,81.82235 43.43655,-40.4061 83.84267,61.61931"
         style="fill:none;stroke:#000000;stroke-width:2;stroke-linecap:butt;stroke-linejoin:miter;stroke-miterlimit:4;stroke-opacity:1;stroke-dasharray:none" />
      <path
         inkscape:connector-curvature="0"
         id="path3886"
         d="m 269.34307,448.90373 19.1929,-24.24367 17.1726,32.32489"
         style="fill:none;stroke:#000000;stroke-width:2;stroke-linecap:butt;stroke-linejoin:miter;stroke-miterlimit:4;stroke-opacity:1;stroke-dasharray:none" />
      <path
         inkscape:connector-curvature="0"
         id="path3888"
         d="m 226.15905,440.8225 c 2.02031,2.02031 8.83884,14.89975 8.83884,14.89975 l 9.59645,-8.58629 9.59645,10.85914 6.31345,-15.65737"
         style="fill:none;stroke:#000000;stroke-width:2;stroke-linecap:butt;stroke-linejoin:miter;stroke-miterlimit:4;stroke-opacity:1;stroke-dasharray:none" />
      <path
         inkscape:connector-curvature="0"
         id="path3890"
         d="m 277.67683,439.05474 c 1.51523,0.75761 10.10153,5.80837 10.10153,5.80837 l 4.04061,-4.54568 4.04061,5.05076 1.76777,-3.03046"
         style="fill:none;stroke:#000000;stroke-width:2;stroke-linecap:butt;stroke-linejoin:miter;stroke-miterlimit:4;stroke-opacity:1;stroke-dasharray:none" />
      <path
         inkscape:connector-curvature="0"
         id="path3892"
         d="m 344.85198,461.78317 -19.44544,14.39467 -3.28299,-11.61675 -11.36422,16.41498 -4.54569,-13.13199 -7.82868,12.37437 -2.77792,-7.07106"
         style="fill:none;stroke:#000000;stroke-width:2;stroke-linecap:butt;stroke-linejoin:miter;stroke-miterlimit:4;stroke-opacity:1;stroke-dasharray:none" />
      <path
         inkscape:connector-curvature="0"
         id="path3898"
         d="m 253.18063,361.02045 c 0,0 -15.65736,2.27285 -16.41497,7.57615 -0.75762,5.3033 22.98097,7.3236 22.98097,7.3236 l 75.76144,0.25254 c 0,0 17.67767,1.01015 17.9302,-6.06091 0.25254,-7.07107 -23.2335,-14.14214 -23.2335,-14.14214"
         style="fill:none;stroke:#000000;stroke-width:2;stroke-linecap:butt;stroke-linejoin:miter;stroke-miterlimit:4;stroke-opacity:1;stroke-dasharray:none" />
      <path
         inkscape:connector-curvature="0"
         id="path3900"
         d="m 260.75678,345.11055 c 0,0 -10.35407,1.26269 -11.11168,5.3033 -0.75761,4.04061 3.53553,11.86929 5.55584,13.13198 2.0203,1.26269 14.14214,2.77792 14.14214,2.77792"
         style="fill:none;stroke:#000000;stroke-width:2;stroke-linecap:butt;stroke-linejoin:miter;stroke-miterlimit:4;stroke-opacity:1;stroke-dasharray:none" />
      <path
         inkscape:connector-curvature="0"
         id="path3904"
         d="m 271.61592,353.69685 c 0,0 -19.44544,-10.10153 -14.89975,-20.96067 4.54568,-10.85914 24.74874,-0.75761 24.74874,-0.75761 0,0 10.10152,-16.16244 25.00127,-9.09138 14.89975,7.07107 3.78807,21.46575 3.78807,21.46575"
         style="fill:none;stroke:#000000;stroke-width:2;stroke-linecap:butt;stroke-linejoin:miter;stroke-miterlimit:4;stroke-opacity:1;stroke-dasharray:none" />
      <path
         inkscape:connector-curvature="0"
         id="path3906"
         d="m 314.04233,338.54456 c 0,0 12.12183,-8.08122 17.9302,1.01015 5.80838,9.09137 -5.05076,20.45559 -5.05076,20.45559"
         style="fill:none;stroke:#000000;stroke-width:2;stroke-linecap:butt;stroke-linejoin:miter;stroke-miterlimit:4;stroke-opacity:1;stroke-dasharray:none" />
      <path
         inkscape:connector-curvature="0"
         id="path3908"
         d="m 296.86973,385.01157 -1.26269,6.56599 c 0,0 0.25254,2.27285 3.03046,2.27285 2.77792,0 2.77792,-2.77792 2.77792,-2.77792 z"
         style="fill:none;stroke:#000000;stroke-width:2;stroke-linecap:butt;stroke-linejoin:miter;stroke-miterlimit:4;stroke-opacity:1;stroke-dasharray:none" />
      <path
         style="fill:none;stroke:#000000;stroke-width:2;stroke-linecap:butt;stroke-linejoin:miter;stroke-miterlimit:4;stroke-opacity:1;stroke-dasharray:none"
         d="m 315.55756,392.33518 -1.26269,6.56599 c 0,0 0.25254,2.27285 3.03046,2.27285 2.77792,0 2.77792,-2.77792 2.77792,-2.77792 z"
         id="path3932"
         inkscape:connector-curvature="0" />
      <path
         inkscape:connector-curvature="0"
         id="path3934"
         d="m 327.93193,409.50778 -1.26269,6.56599 c 0,0 0.25254,2.27285 3.03046,2.27285 2.77792,0 2.77792,-2.77792 2.77792,-2.77792 z"
         style="fill:none;stroke:#000000;stroke-width:2;stroke-linecap:butt;stroke-linejoin:miter;stroke-miterlimit:4;stroke-opacity:1;stroke-dasharray:none" />
      <path
         style="fill:none;stroke:#000000;stroke-width:2;stroke-linecap:butt;stroke-linejoin:miter;stroke-miterlimit:4;stroke-opacity:1;stroke-dasharray:none"
         d="m 302.42558,419.6093 -1.26269,6.56599 c 0,0 0.25254,2.27285 3.03046,2.27285 2.77792,0 2.77792,-2.77792 2.77792,-2.77792 z"
         id="path3936"
         inkscape:connector-curvature="0" />
      <path
         inkscape:connector-curvature="0"
         id="path3938"
         d="m 335.25553,387.78949 -1.26269,6.56599 c 0,0 0.25254,2.27285 3.03046,2.27285 2.77792,0 2.77792,-2.77792 2.77792,-2.77792 z"
         style="fill:none;stroke:#000000;stroke-width:2;stroke-linecap:butt;stroke-linejoin:miter;stroke-miterlimit:4;stroke-opacity:1;stroke-dasharray:none" />
      <g
         style="stroke-width:1.20093095000000005;stroke-miterlimit:4;stroke-dasharray:none;stroke:#000000"
         transform="matrix(0.91418713,0,0,0.75845327,14.939494,100.7598)"
         id="g3948">
        <path
           style="fill:none;stroke:#000000;stroke-width:1.20093095000000005;stroke-linecap:butt;stroke-linejoin:miter;stroke-miterlimit:4;stroke-opacity:1;stroke-dasharray:none"
           d="m 249.50768,377.32774 7.82868,5.55584"
           id="path3940"
           inkscape:connector-curvature="0" />
        <path
           style="fill:none;stroke:#000000;stroke-width:1.20093095000000005;stroke-linecap:butt;stroke-linejoin:miter;stroke-miterlimit:4;stroke-opacity:1;stroke-dasharray:none"
           d="m 253.29575,373.28713 0,13.63706"
           id="path3942"
           inkscape:connector-curvature="0" />
        <path
           style="fill:none;stroke:#000000;stroke-width:1.20093095000000005;stroke-linecap:butt;stroke-linejoin:miter;stroke-miterlimit:4;stroke-opacity:1;stroke-dasharray:none"
           d="m 250.77037,383.38866 5.3033,-5.3033"
           id="path3944"
           inkscape:connector-curvature="0" />
        <path
           style="fill:none;stroke:#000000;stroke-width:1.20093095000000005;stroke-linecap:butt;stroke-linejoin:miter;stroke-miterlimit:4;stroke-opacity:1;stroke-dasharray:none"
           d="m 250.51783,380.3582 6.81853,0.25254"
           id="path3946"
           inkscape:connector-curvature="0" />
      </g>
      <g
         style="stroke-width:1.46239746000000004;stroke-miterlimit:4;stroke-dasharray:none;stroke:#000000"
         transform="matrix(0.71395708,0,0,0.65493325,76.667605,157.53347)"
         id="g3954">
        <path
           inkscape:connector-curvature="0"
           id="path3956"
           d="m 249.50768,377.32774 7.82868,5.55584"
           style="fill:none;stroke:#000000;stroke-width:1.46239746000000004;stroke-linecap:butt;stroke-linejoin:miter;stroke-miterlimit:4;stroke-opacity:1;stroke-dasharray:none" />
        <path
           inkscape:connector-curvature="0"
           id="path3958"
           d="m 253.29575,373.28713 0,13.63706"
           style="fill:none;stroke:#000000;stroke-width:1.46239746000000004;stroke-linecap:butt;stroke-linejoin:miter;stroke-miterlimit:4;stroke-opacity:1;stroke-dasharray:none" />
        <path
           inkscape:connector-curvature="0"
           id="path3960"
           d="m 250.77037,383.38866 5.3033,-5.3033"
           style="fill:none;stroke:#000000;stroke-width:1.46239746000000004;stroke-linecap:butt;stroke-linejoin:miter;stroke-miterlimit:4;stroke-opacity:1;stroke-dasharray:none" />
        <path
           inkscape:connector-curvature="0"
           id="path3962"
           d="m 250.51783,380.3582 6.81853,0.25254"
           style="fill:none;stroke:#000000;stroke-width:1.46239746000000004;stroke-linecap:butt;stroke-linejoin:miter;stroke-miterlimit:4;stroke-opacity:1;stroke-dasharray:none" />
      </g>
      <g
         style="stroke-width:1.30341028999999997;stroke-miterlimit:4;stroke-dasharray:none;stroke:#000000"
         transform="matrix(1,0,0,0.58862367,9.2287926,163.77071)"
         id="g3964">
        <path
           style="fill:none;stroke:#000000;stroke-width:1.30341028999999997;stroke-linecap:butt;stroke-linejoin:miter;stroke-miterlimit:4;stroke-opacity:1;stroke-dasharray:none"
           d="m 249.50768,377.32774 7.82868,5.55584"
           id="path3966"
           inkscape:connector-curvature="0" />
        <path
           style="fill:none;stroke:#000000;stroke-width:1.30341028999999997;stroke-linecap:butt;stroke-linejoin:miter;stroke-miterlimit:4;stroke-opacity:1;stroke-dasharray:none"
           d="m 253.29575,373.28713 0,13.63706"
           id="path3968"
           inkscape:connector-curvature="0" />
        <path
           style="fill:none;stroke:#000000;stroke-width:1.30341028999999997;stroke-linecap:butt;stroke-linejoin:miter;stroke-miterlimit:4;stroke-opacity:1;stroke-dasharray:none"
           d="m 250.77037,383.38866 5.3033,-5.3033"
           id="path3970"
           inkscape:connector-curvature="0" />
        <path
           style="fill:none;stroke:#000000;stroke-width:1.30341028999999997;stroke-linecap:butt;stroke-linejoin:miter;stroke-miterlimit:4;stroke-opacity:1;stroke-dasharray:none"
           d="m 250.51783,380.3582 6.81853,0.25254"
           id="path3972"
           inkscape:connector-curvature="0" />
      </g>
      <path
         sodipodi:nodetypes="csc"
         inkscape:connector-curvature="0"
         id="path4006"
         d="m 287.3884,362.93307 c 0,0 -19.60869,-20.95849 5.64513,-21.46357 25.25381,-0.50507 15.063,24.49403 15.063,24.49403"
         style="fill:none;stroke:#000000;stroke-width:2;stroke-linecap:butt;stroke-linejoin:miter;stroke-miterlimit:4;stroke-opacity:1;stroke-dasharray:none" />
      <g
         style="stroke-width:1.20093095000000005;stroke-miterlimit:4;stroke-dasharray:none;stroke:#000000"
         transform="matrix(0.91418713,0,0,0.75845327,46.759299,97.72934)"
         id="g4713">
        <path
           style="fill:none;stroke:#000000;stroke-width:1.20093095000000005;stroke-linecap:butt;stroke-linejoin:miter;stroke-miterlimit:4;stroke-opacity:1;stroke-dasharray:none"
           d="m 249.50768,377.32774 7.82868,5.55584"
           id="path4715"
           inkscape:connector-curvature="0" />
        <path
           style="fill:none;stroke:#000000;stroke-width:1.20093095000000005;stroke-linecap:butt;stroke-linejoin:miter;stroke-miterlimit:4;stroke-opacity:1;stroke-dasharray:none"
           d="m 253.29575,373.28713 0,13.63706"
           id="path4717"
           inkscape:connector-curvature="0" />
        <path
           style="fill:none;stroke:#000000;stroke-width:1.20093095000000005;stroke-linecap:butt;stroke-linejoin:miter;stroke-miterlimit:4;stroke-opacity:1;stroke-dasharray:none"
           d="m 250.77037,383.38866 5.3033,-5.3033"
           id="path4719"
           inkscape:connector-curvature="0" />
        <path
           style="fill:none;stroke:#000000;stroke-width:1.20093095000000005;stroke-linecap:butt;stroke-linejoin:miter;stroke-miterlimit:4;stroke-opacity:1;stroke-dasharray:none"
           d="m 250.51783,380.3582 6.81853,0.25254"
           id="path4721"
           inkscape:connector-curvature="0" />
      </g>
      <g
         id="g4734"
         transform="matrix(0.71395708,0,0,0.65493325,99.901112,158.54362)"
         style="stroke-width:1.46239746000000004;stroke-miterlimit:4;stroke-dasharray:none;stroke:#000000">
        <path
           style="fill:none;stroke:#000000;stroke-width:1.46239746000000004;stroke-linecap:butt;stroke-linejoin:miter;stroke-miterlimit:4;stroke-opacity:1;stroke-dasharray:none"
           d="m 249.50768,377.32774 7.82868,5.55584"
           id="path4736"
           inkscape:connector-curvature="0" />
        <path
           style="fill:none;stroke:#000000;stroke-width:1.46239746000000004;stroke-linecap:butt;stroke-linejoin:miter;stroke-miterlimit:4;stroke-opacity:1;stroke-dasharray:none"
           d="m 253.29575,373.28713 0,13.63706"
           id="path4738"
           inkscape:connector-curvature="0" />
        <path
           style="fill:none;stroke:#000000;stroke-width:1.46239746000000004;stroke-linecap:butt;stroke-linejoin:miter;stroke-miterlimit:4;stroke-opacity:1;stroke-dasharray:none"
           d="m 250.77037,383.38866 5.3033,-5.3033"
           id="path4740"
           inkscape:connector-curvature="0" />
        <path
           style="fill:none;stroke:#000000;stroke-width:1.46239746000000004;stroke-linecap:butt;stroke-linejoin:miter;stroke-miterlimit:4;stroke-opacity:1;stroke-dasharray:none"
           d="m 250.51783,380.3582 6.81853,0.25254"
           id="path4742"
           inkscape:connector-curvature="0" />
      </g>
      <g
         style="stroke-width:1.46239746000000004;stroke-miterlimit:4;stroke-dasharray:none;stroke:#000000"
         transform="matrix(0.71395708,0,0,0.65493325,91.314815,171.42307)"
         id="g4744">
        <path
           inkscape:connector-curvature="0"
           id="path4746"
           d="m 249.50768,377.32774 7.82868,5.55584"
           style="fill:none;stroke:#000000;stroke-width:1.46239746000000004;stroke-linecap:butt;stroke-linejoin:miter;stroke-miterlimit:4;stroke-opacity:1;stroke-dasharray:none" />
        <path
           inkscape:connector-curvature="0"
           id="path4748"
           d="m 253.29575,373.28713 0,13.63706"
           style="fill:none;stroke:#000000;stroke-width:1.46239746000000004;stroke-linecap:butt;stroke-linejoin:miter;stroke-miterlimit:4;stroke-opacity:1;stroke-dasharray:none" />
        <path
           inkscape:connector-curvature="0"
           id="path4750"
           d="m 250.77037,383.38866 5.3033,-5.3033"
           style="fill:none;stroke:#000000;stroke-width:1.46239746000000004;stroke-linecap:butt;stroke-linejoin:miter;stroke-miterlimit:4;stroke-opacity:1;stroke-dasharray:none" />
        <path
           inkscape:connector-curvature="0"
           id="path4752"
           d="m 250.51783,380.3582 6.81853,0.25254"
           style="fill:none;stroke:#000000;stroke-width:1.46239746000000004;stroke-linecap:butt;stroke-linejoin:miter;stroke-miterlimit:4;stroke-opacity:1;stroke-dasharray:none" />
      </g>
      <path
         inkscape:connector-curvature="0"
         id="path4754"
         d="m 363.14984,390.20719 c 10.6066,52.52793 7.07107,50.00255 14.14214,65.15484 7.07106,15.15229 29.29442,29.7995 41.41625,26.26396 12.12183,-3.53553 16.16244,-23.73858 11.11168,-36.36549"
         style="fill:none;stroke:#000000;stroke-width:2;stroke-linecap:butt;stroke-linejoin:miter;stroke-miterlimit:4;stroke-opacity:1;stroke-dasharray:none" />
      <path
         style="fill:none;stroke:#000000;stroke-width:0.76459754000000002px;stroke-linecap:butt;stroke-linejoin:miter;stroke-opacity:1"
         d="m 374.14382,391.60472 c 7.45025,43.71806 4.96684,41.61623 9.93368,54.22722 4.96683,12.61098 20.5769,24.80159 29.09148,21.85903 8.51458,-2.94256 11.35278,-19.7572 7.80504,-30.26635"
         id="path4756"
         inkscape:connector-curvature="0" />
      <path
         inkscape:connector-curvature="0"
         id="path4758"
         d="m 389.67534,391.98395 c 3.90707,37.51424 2.60472,35.71067 5.20944,46.5321 2.60471,10.82142 10.79098,21.28212 15.25621,18.75712 4.46524,-2.525 5.95365,-16.95355 4.09314,-25.9714"
         style="fill:none;stroke:#000000;stroke-width:0.51290988999999998px;stroke-linecap:butt;stroke-linejoin:miter;stroke-opacity:1" />
      <path
         inkscape:connector-curvature="0"
         id="path4760"
         d="m 374.14382,391.60472 c 7.45025,43.71806 4.96684,41.61623 9.93368,54.22722 4.96683,12.61098 20.5769,24.80159 29.09148,21.85903 8.51458,-2.94256 11.35278,-19.7572 7.80504,-30.26635"
         style="fill:none;stroke:#000000;stroke-width:1;stroke-linecap:butt;stroke-linejoin:miter;stroke-miterlimit:4;stroke-opacity:1;stroke-dasharray:none" />
      <path
         sodipodi:nodetypes="cssc"
         style="fill:none;stroke:#000000;stroke-width:1.25000000000000000;stroke-linecap:butt;stroke-linejoin:miter;stroke-miterlimit:4;stroke-opacity:1;stroke-dasharray:none"
         d="m 220.70817,373.29613 c -4.43002,37.51424 -13.05489,43.28681 -16.00824,54.10824 -2.95334,10.82142 -12.23532,21.28212 -17.2982,18.75712 -5.0629,-2.525 -6.75053,-16.95355 -4.641,-25.9714"
         id="path4762"
         inkscape:connector-curvature="0" />
      <path
         sodipodi:nodetypes="cssc"
         style="fill:none;stroke:#000000;stroke-width:1.25000000000000000;stroke-linecap:butt;stroke-linejoin:miter;stroke-miterlimit:4;stroke-opacity:1;stroke-dasharray:none"
         d="m 232.25761,379.98796 c -8.44744,43.71806 -9.67225,42.12131 -15.30388,54.7323 -5.63163,12.61098 -23.33105,24.80159 -32.98528,21.85903 -9.65423,-2.94256 -12.87231,-19.7572 -8.84972,-30.26635"
         id="path4764"
         inkscape:connector-curvature="0" />
    </g>
  </g>
</svg>
